<svg width="36" height="36" fill="none" xmlns="http://www.w3.org/2000/svg"><path d="M18 6c-1.654 0-3 1.345-3 3s1.345 3 3 3 3-1.345 3-3-1.345-3-3-3zm0 4.5c-.827 0-1.5-.673-1.5-1.5s.673-1.5 1.5-1.5 1.5.673 1.5 1.5-.673 1.5-1.5 1.5zm2.25 3h-6a.75.75 0 00-.75.75v3c0 .415.335.75.75.75H15v11.25c0 .415.335.75.75.75h4.5a.75.75 0 00.75-.75v-15a.75.75 0 00-.75-.75zm-.75 15h-3V17.25a.75.75 0 00-.75-.75H15V15h4.5v13.5z" fill="#FF4545"/><path d="M18 0C8.075 0 0 8.075 0 18s8.075 18 18 18 18-8.075 18-18S27.925 0 18 0zm0 34.5C8.902 34.5 1.5 27.098 1.5 18 1.5 8.902 8.902 1.5 18 1.5c9.098 0 16.5 7.402 16.5 16.5 0 9.098-7.402 16.5-16.5 16.5z" fill="#FF4545"/></svg>