<svg version="1.0" xmlns="http://www.w3.org/2000/svg" width="3008" height="3008" viewBox="0 0 2256 2256"><path d="M1123.7 843.8c-.9 2-3.5 7.7-5.8 12.7-2.4 4.9-4.3 9.2-4.4 9.5 0 .3-1 2.5-2.2 5-1.1 2.5-3.2 7-4.6 10-1.4 3.1-4.1 8.9-6 13-1.9 4.1-4.7 10.2-6.2 13.5-1.5 3.3-4.2 9.3-6.1 13.3-1.8 4-3.3 7.3-3.2 7.5 0 .1-.9 2.2-2.2 4.7-1.3 2.5-2.3 4.7-2.2 5 0 .3-.6 1.6-1.4 3-1.4 2.6-12.2 25.7-12.4 26.5 0 .3-1.8 4.2-3.9 8.7-2.1 4.6-4.9 10.5-6.1 13.3-1.2 2.7-4.2 9.2-6.6 14.3-2.4 5.2-4.4 9.5-4.4 9.7 0 .1-2.1 4.7-4.7 10.1-2.5 5.5-4.7 10.1-4.8 10.4-.2.6-2.3 5.5-7 15.5-5 10.7-5.9 12.9-5.7 13.7.1.5-.2.8-.8.8-.5 0-1 .4-1 .9s-1.3 3.8-2.9 7.3c-1.6 3.5-3.9 8.5-5.1 11.3-1.3 2.7-4.1 8.8-6.3 13.5-2.2 4.7-4.1 8.7-4.2 9 0 .3-.8 2.1-1.7 4-.9 1.9-3.1 6.6-4.8 10.5-1.8 3.8-6.9 15.1-11.5 25-4.5 9.9-9.5 20.7-11 24-1.5 3.3-4.1 8.9-5.7 12.5-1.7 3.6-4.1 8.7-5.3 11.5-2.5 5.5-7.4 16.3-11 24-1.3 2.7-3.4 7.5-4.8 10.5s-3.9 8.6-5.7 12.5c-1.7 3.8-4.3 9.5-5.7 12.5-2.5 5.6-4.8 10.4-12.2 26.3-2.3 4.8-4.1 8.9-4.1 9.1 0 .2-2.1 4.8-4.6 10.2-2.5 5.5-5.2 11.2-5.9 12.9-.7 1.6-2.9 6.4-4.8 10.5s-4.6 10-5.9 13c-3.6 7.8-8.4 18.1-12.9 27.8-2.2 4.6-3.9 8.5-3.9 8.8 0 .2-2.2 5-4.9 10.6-6 12.8-10.1 21.7-10.1 22.3 0 .3-1.1 2.7-2.5 5.5-1.4 2.7-2.1 5.1-1.7 5.3.4.2 19.8.4 43.2.5l42.6.3.2-11.7c.2-16.2.9-22.8 4.2-38.9 1.8-8.7 8.3-26.9 13.9-38.4.9-1.9 1.6-3.7 1.6-4 0-.3 1.3-3.2 2.8-6.3 1.5-3.1 2.7-5.9 2.7-6.2 0-.3 1.1-2.9 2.4-5.8 1.3-2.9 4.1-9.4 6.1-14.3 2.1-5 4-9.5 4.3-10 .4-.6.7-1.5.8-2 .2-.6 8-18.8 17.4-40.5 9.4-21.7 17.3-40 17.4-40.5.2-.6 1.1-2.8 2-5 1-2.2 3.2-7.2 4.8-11 1.7-3.9 4.1-9.4 5.4-12.2 1.3-2.9 2.6-6.4 3-7.8.3-1.4 1-2.5 1.5-2.5s.9-.7.9-1.6c0-.8 1.1-3.9 2.4-6.7 5.6-12.3 7.5-16.7 6.9-16.7-.3 0-.1-.6.5-1.3.5-.6 3.6-7.3 6.7-14.7 3.2-7.4 6.6-15.5 7.7-18 1.1-2.5 2.4-5.4 2.8-6.5.5-1.1 1.8-4 2.8-6.5 1.1-2.5 4.1-9.5 6.7-15.5 5.4-12.8 6.5-15.3 9.4-21.9 1.2-2.7 3.1-7.1 4.2-9.9 1.1-2.8 2.8-6.9 3.9-9.1 1-2.3 5.9-13.8 11-25.6 5-11.8 10.2-23.9 11.6-26.8 1.3-2.9 2.4-5.5 2.4-5.7 0-.4 3.2-7.7 6.5-14.9l1.3-2.9 1.8 3.4c1 1.9 1.9 3.6 1.9 3.9.1.3 1.7 3.9 3.7 8 1.9 4.1 5.6 12.4 8.3 18.5 2.6 6 5.8 13.3 7.1 16.1 1.2 2.7 3.2 7.2 4.3 10 1 2.7 2.7 6.7 3.7 8.9s1.8 4.2 1.9 4.5c.1.3.6 1.6 1.2 3s4.1 9.7 7.7 18.5c3.7 8.8 7.1 16.9 7.6 18 3.4 7.5 15 36.4 15 37.3 0 .7.5 1.2 1 1.2.6 0 .9.3.8.7-.1.5.4 2.1 1 3.6.7 1.6 1.2 3.4 1.2 4.1 0 .6.4 1.6.8 2.2.4.5 2.3 4.5 4.1 8.9 1.8 4.4 3.9 9.3 4.6 11 .8 1.6 2.3 5.4 3.5 8.4 1.1 3 3 7.3 4 9.6s2.8 6.6 4 9.5c1.2 2.9 2.9 7.2 3.9 9.4 1 2.3 4.4 10.2 7.6 17.6 3.1 7.4 6.3 14.8 7 16.5 3.3 7.6 13.6 32.7 16.1 39 1.5 3.8 3.1 7.4 3.5 8 .5.5.9 1.5.9 2.2 0 .7 1.1 3.6 2.5 6.5 1.4 2.8 2.5 5.6 2.5 6.1s1.6 4.8 3.6 9.5c2 4.8 4 9.6 4.4 10.7.5 1.1 5.4 12.3 10.9 25 16.4 37.7 18.4 45.4 18.4 69.5 0 10.8-.5 18-1.8 27.6l-.6 4.1h53c29.2 0 53.1-.2 53.1-.3 0-.4-3.9-7.2-5.9-10.4-.8-1.4-1.6-2.7-1.6-3 0-.3-1.6-3-3.6-6s-5-7.8-6.7-10.5c-1.7-2.8-3.5-5.5-3.9-6.1-.5-.5-1.3-1.9-1.9-3-.6-1-3.5-6.2-6.5-11.4s-7.6-14-10.1-19.5c-7.4-16-11.1-24-11.3-24.5-.4-1.2-2.5-6-5.5-12.5-3.2-6.9-5.5-12-10.6-23.3-1.4-3.1-6-13.1-10.1-22.2s-8.5-18.8-9.8-21.5c-1.2-2.8-3.7-8.2-5.5-12-1.8-3.9-4.3-9.4-5.6-12.3-1.3-2.8-3.6-7.8-5.1-11-1.5-3.1-2.7-5.9-2.8-6.2 0-.3-1.2-3-2.7-6-1.4-3-3.5-7.8-4.8-10.5-1.2-2.8-6.1-13.3-10.7-23.5-4.7-10.2-9.6-20.9-10.9-23.8-1.3-2.9-2.4-5.7-2.4-6.2 0-.6-.4-1-1-1-.5 0-1-.6-1-1.3 0-.8-1.3-4-2.9-7.3-1.5-3.2-3.8-8.2-5.1-10.9-2.9-6.5-20.3-44.5-27-59-1.6-3.6-4.4-9.5-6.1-13.3-1.7-3.7-4.3-9.2-5.6-12.2-1.4-3-4.7-10-7.2-15.5-2.6-5.5-5.6-12.1-6.7-14.7-1-2.7-2.2-4.8-2.6-4.8-.5 0-.8-.6-.8-1.3 0-.7-1.2-3.8-2.6-6.8-3-6.1-9.3-19.5-13.4-28.4-11.1-24-25.5-54.4-36.6-77.2-4.1-8.3-7.4-15.6-7.4-16.1 0-.6-.3-1.2-.7-1.4-.5-.2-2.4-3.5-4.3-7.3-1.9-3.9-3.8-7.2-4.2-7.3-.5-.2-.8-1-.8-1.7 0-3-1.9-2.3-3.3 1.3zm296 117.9c-.3.5-.6 60-.6 132.3-.2 132.3-.4 149.5-1.6 160.5-1.2 10.9-4.2 18.1-9.9 23.9-3.2 3.1-8.6 10.5-8.6 11.6 0 .4 1.5.5 3.3.4 1.7-.2 21.4-.5 43.6-.9 22.3-.3 40.6-.7 40.8-.9.2-.2-2.2-3-5.3-6.2-9.4-9.8-10.4-11.5-13.1-21.9-.9-3.3-1.4-189.5-.6-189.5.3 0 1.4 1 2.5 2.2 1.1 1.3 6.5 7.2 12.1 13.2 5.6 6 11 11.8 12 13 1 1.2 5.8 6.4 10.7 11.6 4.9 5.2 9.7 10.4 10.7 11.6 1.7 2 19.1 20.9 24.3 26.4 2.3 2.4 18.2 19.8 23.8 25.9 3.5 3.9 20.4 22.1 22.7 24.6 1.1 1.1 6.7 7.2 12.5 13.5s11.4 12.4 12.5 13.6c1.1 1.1 6.1 6.5 11 11.9 5 5.4 10.4 11.3 12 13 1.7 1.8 6.4 6.9 10.5 11.5 4.1 4.5 11 11.9 15.3 16.4 4.4 4.4 11 11.5 14.7 15.7 6 6.5 7.3 7.5 10.2 7.5l3.3-.1.1-138c.1-75.9.4-140.7.8-144 1.4-13.3 1.8-17 2.3-17.7.2-.5.6-1.7.8-2.9 1-5.3 4.9-10.9 10-14.8 3-2.3 5.9-5 6.5-6.1 1-1.9.5-2-42.6-2.2-24-.2-44-.1-44.5.3-.5.3 2.2 4.2 6 8.7 6.7 7.9 8.3 10.9 9.5 18.2.3 1.9.8 4.4 1 5.6.5 2.3 1.6 15.1 2.2 23.4 1.3 21.4 1.7 73.8.9 123-.2 12.9-.4 26.4-.4 29.8l-.1 6.4-4.2-3.4c-9.2-7.2-44.2-43.6-76.8-79.8-3.6-4-7.6-8.5-9-10-4.2-4.5-18.4-20.2-22.6-24.9-2.1-2.5-4.8-5.5-5.9-6.7-1.1-1.2-4.5-5-7.5-8.4-3-3.4-7.1-7.8-9-9.9-1.9-2.1-7.1-7.8-11.5-12.7-9.5-10.6-7.6-8.5-20.5-22.4-11.4-12.4-20.5-22.1-28.9-30.9-2.9-3.1-6.7-7.3-8.5-9.5-5.6-6.9-8-9.2-11.8-10.9-4.1-1.9-4.5-2-5.1-1zm482 6.9c-.1.1-4.2.5-9.1.8-4.9.4-9.2.9-9.5 1-.3.2-2.8.7-5.5 1-2.7.4-5.2.9-5.6 1.1-.4.2-1.7.6-3.1.8-8.6 1.6-35.2 13.1-40 17.3-.8.8-1.9 1.4-2.3 1.4-.6 0-3.6 2.1-10 7-10 7.7-23.3 21.9-31.4 33.6-3.4 4.9-11.7 20-14.1 25.7-5.6 13-11.3 32.5-12.7 43.2-.2 1.6-.6 4.6-.9 6.5-1.4 8.8-1.9 31.7-1 44.5 1 14.1 5.7 37.2 8.6 42.7.5 1 .7 1.8.4 1.8-.2 0 .7 2.6 2.1 5.7 1.4 3.2 2.7 6.2 2.8 6.8.2 1.1 5.3 10.8 7.3 14 .7 1.1 1.6 2.7 2 3.5.8 1.8.4 1.2 8.7 11.7 3.6 4.6 8.7 10.4 11.3 12.9 5.4 5.2 17.9 15.4 18.9 15.4.3 0 1.9 1.1 3.5 2.4 3.6 3.1 27.4 14.8 35.4 17.5 8.2 2.7 16.5 5.1 19.5 5.7 1.4.3 4.1.9 6 1.4 4.3 1.1 9.5 2.1 13.5 2.5 1.7.2 4.7.6 6.8 1 6.6 1.3 36.1 2 44.2 1.1 4.1-.4 15.9-1.9 16.5-2.1.3-.1 2.5-.5 5-1s4.7-.9 5-1c7.8-1.7 19.2-6.7 23.2-10.2 5.2-4.6 9.2-21.7 10.3-44l.4-9.1-4.7 1.5c-4.4 1.5-17.1 8-18.2 9.2-.6.7-1.3 1.1-12.4 7.1-4.2 2.3-7.6 3.8-7.6 3.3 0-.4-.4-.3-.8.2-.7 1-9.9 4.2-15.1 5.2-11.8 2.3-19.8 3-31.7 2.7-7.7-.1-15.2-.5-16.9-.8-1.6-.4-5.5-1.1-8.5-1.7-27.2-5.5-54.6-24.9-68.2-48.2-4.8-8.3-12.3-25.7-13.3-30.7-.1-.3-.4-1.9-.8-3.5-3.6-14.9-3.8-17.7-4-39.5-.2-18.7.2-23.1 3.7-39.9 1.9-9 5-17.7 9.7-27.7 1.6-3.3 2.9-6.3 2.9-6.8 0-.4.5-1.2 1-1.9.6-.7 2.5-3.5 4.3-6.2 3.4-5.3 3.6-5.6 6.8-9.5 4.9-5.9 6.7-7.8 11.9-12.4 5.8-5.1 14.5-11.2 19-13.2.8-.3 3.3-1.5 5.5-2.5 14-6.4 32-10.2 49-10.2 7-.1 21.9 1 25.5 1.8 1.4.3 3.9.8 5.5 1 3 .6 8.6 2.1 11.5 3.2.8.3 2 .7 2.5.8.6.2 9.3 4.3 19.5 9.3 10.2 4.9 19.5 9.2 20.7 9.5l2.2.5-.4-26.7c-.2-14.6-.4-27.4-.4-28.3-.1-1.4-.5-1.6-2.5-.8-2.9 1.1-24.4 1-29.5 0-2-.5-6.5-1.1-10-1.5-3.6-.3-6.7-.7-7-.9-.3-.2-3.1-.7-6.1-1-3-.4-6.6-.8-8-1.1-5.4-.9-10.9-1.5-20.5-2-16.1-1-20.5-1.2-20.8-.9zm-1470.8 7.2c-2.4 3.7-4.7 6.8-5.1 7-.5.2-.8.8-.8 1.3 0 .6-2.7 6.5-5.9 13.3-3.3 6.7-6.3 13.5-6.6 14.9-.4 1.5-1.1 3-1.6 3.3-.5.3-.9 1.4-.9 2.5 0 1-.5 1.9-1.2 1.9-.6 0-.9.3-.6.6.5.5-1.2 4.9-9.7 25.2-.8 1.8-1.4 3.5-1.4 3.7-.1.3-1.3 2.9-2.8 5.8-1.5 2.8-2.8 5.6-2.9 6.2-.2.8-7.9 18.4-11.4 26-.5 1.1-3.7 8.3-7.1 16-3.3 7.7-6.9 15.8-7.9 18-1 2.2-3.2 7.4-5 11.5-1.8 4.1-4.3 9.7-5.5 12.5-1.3 2.7-3.3 7.2-4.5 10-2.4 5.6-4.2 9.4-9.5 21-3.4 7.2-5.5 12.1-6 13.5-.1.3-2.3 5-4.9 10.5-8.9 18.6-10 21-9.8 21.7.1.3-.5 1.2-1.3 1.8-.8.7-1.5 1.7-1.5 2.3 0 1.5-7.3 16.1-8.2 16.5-.5.2-.8 1-.8 1.8 0 1.3-1.8 5.2-3 6.4-.3.3-2.7 4.8-5.4 10-2.8 5.2-5.6 10.1-6.3 10.8-.7.7-1.3 1.9-1.3 2.7 0 .7-.3 1.5-.7 1.7-.5.1-1.8 1.7-3 3.4l-2.2 3.2 3.4.6c1.9.4 6.1.9 9.2 1.1 3.2.3 7.6.7 9.8.9 2.2.2 7.4.8 11.5 1.1 4.1.4 9.3.9 11.5 1.1 2.2.2 6.7.6 10 .9 3.3.3 8.1.8 10.8 1 2.9.4 4.7.2 4.7-.4 0-.6-1.4-3.9-3-7.3-1.7-3.4-3.3-7.4-3.6-8.8-.8-4.3-.5-12.5.6-15.6.6-1.6 1.2-3.1 1.2-3.4.1-1 1-3.6 2.4-6.7.8-1.7 1.4-3.4 1.4-3.7 0-.3 1.5-3.9 3.3-7.8 1.8-4 5.5-12.4 8.2-18.5l5-11.3 62.4.3 62.3.2 2.8 4c5 7.3 15.9 32.2 17.9 40.7.1.4.8 2.8 1.6 5.4 1.5 4.9 1.3 15.4-.3 19.4-.5 1.4-2.6 4.9-4.7 7.8-2 3-3.4 5.6-3.2 5.9.6.5 85.8.5 86.4 0 .6-.7-7.3-11.2-12-16-2.6-2.6-4.7-5.2-4.7-5.7s-.6-1.5-1.4-2.2c-1.9-1.9-9.9-16-9.9-17.6 0-.6-.3-1.2-.7-1.2-.4 0-1.9-2.8-3.5-6.3-1.6-3.4-5.5-11.8-8.7-18.5-3.2-6.8-5.8-12.5-5.8-12.7 0-.2-2.1-4.7-4.6-10.2-2.6-5.4-7-15-9.9-21.3-8.9-19.5-10.6-23.2-14.2-31-1.9-4.1-4.6-10-6-13-1.4-3-4.5-9.7-6.9-14.8-2.4-5.1-4.4-9.5-4.4-9.8 0-.2-1.9-4.3-4.1-9.1-2.3-4.9-5.3-11.3-6.7-14.3-7.2-15.9-25.8-56.4-28.7-62.5-1.8-3.9-4.2-9.3-5.5-12-2.3-5.3-5.5-12.1-11.4-24.7-2-4.2-3.6-8.1-3.6-8.6 0-1.3-6.2-7.8-8.1-8.4-1.1-.4-2.8 1.3-6 6zm7.5 87.8c.6 1 2.3 3.8 3.9 6.2 1.5 2.4 2.7 4.7 2.7 5.3 0 .5.4 1.7.9 2.7.5.9 2.6 6 4.7 11.2 2 5.2 5.7 13.7 8.1 18.8 2.3 5.2 4.3 9.5 4.3 9.7 0 .1 1.4 3.3 3.2 7.1 1.7 3.8 3.3 7.3 3.4 7.9.1.5 1.3 3.5 2.7 6.5 5.5 12.2 11.3 28.7 10.4 29.7-.3.2-20.9.5-45.9.6-44.7.2-45.3.2-45.4-1.8 0-1.1.4-2.6.9-3.3.5-.6.7-1.2.4-1.2-.7 0 6.2-19.6 9.5-27 1.4-3 2.5-5.8 2.6-6.3.1-.4.9-2.3 1.7-4.3.8-2 1.5-3.8 1.5-4.1 0-.2.9-2.3 1.9-4.6 1-2.3 3.3-7.3 5-11.1 1.7-3.8 3.1-7.5 3.1-8.2 0-.8.5-1.4 1-1.4.6 0 1-.6 1-1.3 0-2.7 15.3-33.7 16.4-33.4.5.2 1.4 1.2 2 2.3zM37.9 975.5c-.3.3-6.9.7-14.5.9-7.6.2-14.7.5-15.8.5-1.4.1-.6 1.5 3.8 6.5 6.6 7.6 8.7 12.2 10.9 23.6 2.4 12.5 2.8 15.8 4.2 34.5 1.6 21.8 2.1 74 1 126.5-.4 16.8-.8 40.4-1 52.5-.4 21.3-1.1 35.9-1.9 40-1.9 9.1-3 11.1-11.9 20.4-3.7 3.9-6.7 7.6-6.7 8.1 0 .6 1.2 1 2.8 1.1 1.5 0 9.9.3 18.7.6 8.8.3 20.8.6 26.7.7 6 .1 10.8.4 10.8.8s.6.5 1.3.3c.6-.3 12.9-.7 27.2-1 28.3-.5 31.4-.7 48.5-3.1 11.8-1.7 21-3.5 26.8-5.3 1.7-.5 3.2-.7 3.2-.4 0 .3.6.1 1.3-.4.6-.6 2.4-1.3 3.8-1.6 1.4-.4 4.7-1.6 7.5-2.9 2.7-1.2 5.1-2.2 5.4-2.3 1.9-.1 12.4-7.1 16.8-11 5.6-5.1 12.7-14.5 15.6-20.7 2.7-6.1 6.4-16.1 6.9-19.3.3-1.7.8-4.1 1.1-5.5 1.6-6.9 2-18.4 1.2-28-.5-6.1-.8-7.8-2.1-13-.3-1.1-.7-2.8-.9-3.8-.8-3.2-4.6-12.4-7.2-17.1-6.3-11.3-12.2-16.9-29.6-27.8-7.6-4.9-14.8-9.2-15.9-9.8-1-.5-1.9-1.5-1.9-2.2 0-.7 3.9-3.8 8.6-7 9.3-6.2 27.5-23.3 24.9-23.3-.3 0 .1-1.2.9-2.8 3.8-7.1 5-13.8 4.9-29.7 0-12-.5-17.4-2.3-22-.6-1.7-1-3-.9-3 1.2 0-3.7-11.1-7.6-17-13.5-20.4-36.2-30.9-78-36.1-8.1-1-81.8-1.3-83.7-.3-1 .6-1.8.5-2-.2-.2-.6-.6-.8-.9-.4zm76.9 39.9c9.3 1.5 11 1.8 16.2 3.2 9 2.6 18.9 8.1 25.1 14.1 3.3 3.1 5.9 6 5.9 6.5s.7 1.6 1.5 2.5c.8.8 1.3 1.9 1 2.4-.4.5-.1.9.6.9s1 .3.7.6c-.4.3-.1 2 .7 3.7 2.1 5.4 1.1 15-2.4 22-4.2 8.5-12.3 16.9-19.7 20.4-1.9.9-3.4 2-3.4 2.5 0 .4-.6.8-1.4.8-.7 0-3.4.9-6 2.1-2.6 1.1-5.5 2.2-6.4 2.4-.9.2-4.4 1-7.7 1.9-8.8 2.2-12.5 2.6-28.6 3.3-8.4.3-14.9.2-15.2-.4-2.1-3.4-3.1-62.9-1.4-77.8 1-8 2-10.4 4.5-10.4 2.1 0 12.6-1.2 12.9-1.4.4-.4 19.7.2 23.1.7zm7.7 127.9c41.1 4.7 59.9 22.2 59.8 55.7 0 16.5-4.2 27.2-14.3 36.7-5.2 4.9-18.1 11.7-24.5 12.9l-6.5 1.3c-10.7 2.2-29 2.9-39.4 1.6-13.2-1.6-21.2-9.1-23.2-21.8-1.2-8.1-1.4-10.3-1.3-23.7 0-16.9 1-61.8 1.3-62.1.1 0 4.4-.3 9.6-.6 5.2-.3 9.6-.6 9.7-.7.4-.4 24.2.2 28.8.7zM665 977.2c0 .7 3.9 5.5 8.8 10.8 3.3 3.6 7 10 7.6 13.2.2 1.5.7 3.2 1 3.7.7 1 1.4 10.9 2.3 31.6.8 18.4.8 194.7-.1 209.8-.6 11.5-2.7 21.3-5.3 25.6-1.8 2.9-8.3 9.2-13.3 13-2.3 1.8-2.8 2.6-1.8 3.2 7.3 4.1 168.9 4.2 173 .1.3-.4 1-4.1 1.3-8.2 1.2-13.1 1.3-14.4 1.9-19.5 2.3-18.7 2.8-28.5 1.6-28.5-.6 0-4.8 3.6-9.3 8-8.3 8.1-14.3 11.5-22.1 12.5-18.8 2.4-54.4 2.3-60.6-.1-.8-.3-2.5-.8-3.8-1-4-.8-9.1-4.8-10.1-7.9-.9-2.7-1.5-7.3-2.7-20.5-2.4-27.5-2.4-187.2.1-206.7.4-3.4 1.6-9.4 3.1-16.2 1.1-5.1 4.6-10.1 11.1-15.9 3.7-3.3 6.5-6.4 6.1-6.7-.9-.9-88.8-1.2-88.8-.3zm1469.3-.4c-39.2.1-71.3.6-71.3 1 0 .5 2.3 3.2 5 6 2.8 2.8 5 5.6 5 6.2 0 .5.5 1 1.2 1 .6 0 .8.3.5.7-.4.3-.3 1.1.2 1.7 1 1.2 3.6 10.9 4.5 16.6.3 1.9.8 4.6 1.1 6 .3 1.4.7 5.4 1 9 .3 3.6.7 8.5 1 11 2.7 25.9 2 192.8-.9 215-.4 3.1-1.9 13.3-2.1 14-1.5 5.9-2.9 9.3-4.7 11.6-3.2 4.1-3.8 4.7-8 7.2-3.3 2.1-5.4 4.9-4.4 5.9.2.3 11.8.4 25.8.3 13.9-.1 56.3-.3 94.1-.5 37.9-.2 69.1-.5 69.3-.7.2-.2.6-4.2.9-8.9.3-4.6.7-11.3 1-14.9.9-12.5 1.5-20.6 2-28.5l.5-7.9-8.2 7.9c-4.5 4.4-8.5 8.3-8.8 8.6-.3.4-2.8 1.8-5.5 3.2-6.3 3.1-10.3 4-24.6 5.2-17.6 1.5-46 2.1-51.9 1-13.4-2.4-19.9-6.8-23.8-16.2-3.2-7.5-3.7-13.7-3.6-41.3.2-43.6.7-54 2.4-54.1 4.1-.3 22.8-.8 43-1.3 20.1-.4 30.4.2 35 2.1.8.3 1.8.6 2.1.5.3 0 3.8 1.6 7.7 3.6 7 3.6 9.7 5.5 17.5 11.9 2.1 1.8 4.4 3.3 5 3.3.9 0 1.2-10.4 1.3-39.5l.2-39.5-3.2 2.2c-1.7 1.2-3.8 2.8-4.6 3.5-.8.7-4.6 3.7-8.5 6.7-8.6 6.5-14.1 8-34 9.2-9.8.6-57.8.6-61 .1-2-.4-2-1.2-2-45.3-.1-24.7.1-45.5.3-46.1.2-.7 1.4-1.2 2.5-1.2 1.2.1 17.1.1 35.2.1 32.3-.1 42.6.2 48.2 1.3 1.5.3 4.4.8 6.3 1.1 4.8.8 9.9 3.6 14 7.6 4.6 4.5 12 9.8 13.5 9.8.9 0 1.2-6.6 1.1-28l-.1-28h-3c-27.9-.4-55-.5-114.2-.2z"/><path d="M1117.5 1144.6c-12.2 2.4-18.4 5.6-26.5 13.4-9.7 9.3-14 19.4-14 32.9 0 18 7.3 32.9 20.5 41.8 6.3 4.2 21.1 8.1 29 7.6 11.2-.8 19.7-3.1 27.4-7.7 21.2-12.3 27.7-38.4 15.8-63.6-8.8-18.7-30.5-28.8-52.2-24.4zm-1030.7 195c-.3.2-10.4.6-22.6.9-20.1.4-44.3 1.3-54.7 2-2.2.2-5.2.3-6.7.4l-2.8.1.3 11.4.2 11.5h250c245.6.1 563.7.8 584.6 1.3 16.1.3 22.1-2.4 26.2-11.7 1.6-3.7 3.9-13.7 3.3-14.3-.2-.1-124-.5-275.2-.7-151.2-.3-325-.6-386.1-.8-61.2-.1-111.3.1-111.3.5s-1.1.3-2.4-.2c-1.3-.5-2.6-.7-2.8-.4zm1454 0c-.2.2-33.6.6-74.1.8-40.6.3-74.1.8-74.6 1-.5.3 0 3.2 1.1 6.3 1 3.2 2 6.5 2.2 7.3 1.6 7.6 3.2 11 5.1 11.1 31.3.7 71.1 1 157 .9 274-.3 329.1-.3 397.8.2 40.6.3 74.1.8 74.3 1.1.3.3 1.9.1 3.5-.3 1.8-.5 2.9-.5 2.9.1s.5.7 1.1.3c1.4-.8 14.7-.9 15.5-.2.3.3 2.1.2 4-.2 1.9-.5 3.7-.4 4 .1.3.5 1 .6 1.6.3.6-.4 8.1-.6 16.7-.5 8.6.1 16.1.1 16.6.1 21.6.2 105.7-1.6 119-2.5 20.9-1.3 25.5-1.7 29.8-2.6 2.7-.5 5.3-1.1 5.8-1.4.5-.4.9-3.9.9-8 0-7.2-.1-7.4-3.2-9.3-1.8-1.1-4.8-2.3-6.7-2.7-1.8-.4-106.5-.8-232.6-1-126.1-.1-229.8-.5-230.3-.9-.6-.3-1.3-.2-1.7.4-.4.6-1.1.7-1.7.4-1.2-.8-226.7-.9-227.4-.1-.3.3-1.8.1-3.4-.3-1.6-.4-3-.6-3.2-.4z"/></svg>