<svg width="66" height="60" fill="none" xmlns="http://www.w3.org/2000/svg"><g clip-path="url(#clip0)" fill-rule="evenodd" clip-rule="evenodd" fill="#fff"><path d="M32.492 18.91c-2.402 0-4.823-2.125-4.823-4.538-.305-2.014.423-5.294 5.33-5.294 6.055 0 5.964 9.832-.507 9.832zm-14.215-5.294c0 10.51 6.977 12.064 11.684 22.68.373 1.143 2.256 6.695 2.56 8.327.479-4.695 3.858-11.546 6.571-15.126a129.597 129.597 0 012.318-2.991c.867-1.08 1.6-1.955 2.407-3.156 3.077-4.585 4.023-10.39 1.495-15.406-.905-1.796-2.147-3.403-3.714-4.632-5.88-4.612-13.69-4.46-18.943.787-1.247 1.246-2.113 2.186-2.948 3.879-.684 1.385-1.43 3.694-1.43 5.638z"/><path d="M21.577 40.842c-.715.926-3.232 5.562-3.843 6.52-.857 1.34-5.629 2.919-7.326 3.311.117-.499 3.601-7.978 4.372-8.514l8.14-3.513c.817-.35 1.715-.724 2.465-1.081-2.179-4.127 0 0-2.285-4.286-8.798 3.616-7.418 3.007-8.798 3.616-4.393 1.938-3.047.752-5.925 6.468l-3.053 6.043c-.34.747-.685 1.38-1.093 2.192C3.42 53.208.223 59.05 0 60l16.75-6.327c1.085-.391 1.087-.335 2.126.178l11.913 5.321c2.158.942 1.397 1.083 5.933-1.022a95.443 95.443 0 014.04-1.786l5.948-2.685c1.026-.407 1.49-.1 2.325.224L66 60.002 55.435 38.98l-13.297-5.954c-.625.928 0 0-2.322 4.286l5.184 2.2c1.81.77 3.3 1.446 5.158 2.188 1.881.75 1.837 1.578 3.149 4.184.84 1.668 1.663 3.398 2.538 5.041-.503-.041-7.413-2.14-8.128-3.272l-4.057-7.315c0 2.72 1.524 5.85 1.524 8.57-1.748.919-3.802 1.637-5.588 2.519-1.79.885-4.012 1.798-5.753 2.713-.628-2.112-.974-4.897-1.323-6.719-.402 1.401-.942 5.068-1.298 6.53a28.246 28.246 0 00-2.757-1.296c-.969-.39-1.721-.829-2.792-1.26l-5.62-2.486c.214-2.553 1.146-5.266 1.523-8.067z"/></g><defs><clipPath id="clip0"><path fill="#fff" d="M0 0h66v60H0z"/></clipPath></defs></svg>