<svg width="51" height="61" fill="none" xmlns="http://www.w3.org/2000/svg"><path fill-rule="evenodd" clip-rule="evenodd" d="M3.869 10.001L.748 9.877c-.673 1.237-.79 6.715-.737 8.347.305 9.557 3.594 20.303 8.718 27.972 1.315 1.968 2.624 3.574 4.004 5.189.178.21.375.373.556.582 2.442 2.814 6.344 5.795 9.52 7.707l2.246 1.17c.363.167.394.227.794.04 4.031-1.87 8.865-5.558 11.751-8.82.373-.422.768-.777 1.13-1.221.675-.83 1.379-1.627 2.03-2.53.667-.925 1.273-1.724 1.901-2.73C47.452 37.912 51 27.725 51 16.635c0-1.399-.24-5.701-.741-6.744-.872.037-2.393.14-3.192.11-4.668 0-9.044-1.388-12.593-3.194a31.734 31.734 0 01-4.85-3.049c-.368-.284-.687-.524-1.078-.844C27.121 1.751 26.331.714 25.501 0c-.168.107-.773.752-.95.95-.848.948-2.144 2.023-3.178 2.8-1.416 1.066-3.063 2.149-4.854 3.044-3.656 1.827-7.825 3.207-12.652 3.207h.002zm-.243 3.463c-.174.506-.186 2.665-.185 3.314.003 4.682.75 9.428 1.952 13.614 1.134 3.945 2.686 7.954 4.508 11.12.993 1.725 1.96 3.24 3.063 4.706.29.385.556.724.846 1.078 2.844 3.46 5.345 5.759 9.134 8.38.306.211 2.17 1.418 2.445 1.478.532.117 4.252-2.597 4.736-2.974 4.534-3.54 7.947-7.416 10.869-12.493 3.769-6.546 6.554-16.053 6.554-25.051 0-.732 0-2.551-.174-3.168-5.01-.248-7.908-.635-12.556-2.645-2.828-1.223-5.931-3.11-8.248-5.057-.308-.258-.74-.668-1.067-.879-.358.225-.694.554-1.035.84-.34.286-.692.552-1.077.844-5.732 4.346-12.243 6.786-19.765 6.894z" fill="#fff"/><path fill-rule="evenodd" clip-rule="evenodd" d="M9.189 16.508l-1.25-.025C6.663 26.204 10.3 37.51 16 44.303a59.71 59.71 0 001.5 1.706c1.719 1.9 4.969 4.475 7.182 5.63.425.221.662.503 1.125.266.389-.199.67-.359 1.057-.583 2.104-1.22 3.75-2.558 5.448-4.16 1.638-1.543 3.182-3.294 4.435-5.184 2.759-4.162 4.583-8.554 5.702-13.706.39-1.797.678-3.718.797-5.634.082-1.328.172-5.002-.22-6.14l-1.277.014c-5.724.101-11.333-2.593-15.495-6.21-.307-.267-.443-.598-.848-.698-.387.51-.926.926-1.468 1.375-3.866 3.208-9.503 5.643-14.747 5.529H9.19zm15.463 17.327l-2.8-2.795c-.703-.707-1.872-2.301-3.73-1.615-1.248.46-2.26 2.036-1.427 3.668.429.84 4.756 5 5.502 5.749 1.058 1.06 1.905 2.3 3.63 1.925 1.53-.333 1.918-1.737 2.63-2.994.692-1.22 1.32-2.393 1.998-3.637 1.318-2.42 2.632-4.87 3.984-7.279.425-.755 1.756-2.944 1.843-3.787.17-1.636-1.169-3.006-2.767-2.893-1.732.122-2.183 1.54-2.874 2.78l-5.99 10.878h.001z" fill="#fff"/></svg>