<svg width="63" height="60" fill="none" xmlns="http://www.w3.org/2000/svg"><g clip-path="url(#clip0)" fill-rule="evenodd" clip-rule="evenodd" fill="#fff"><path d="M26.704 59.977l9.495.023c-.105-14.403-.136-25.271-.22-40.956l7.057-.008C31.572.16 41.403 16.129 31.473 0a1441.68 1441.68 0 01-11.905 19.002c7.473.038 6.244.037 7.473.038-.337 40.937-.145 28.813-.337 40.937zm18.501-9.465c1.888.016 3.8-.016 5.723-.016l-.547-22.292c1.404-.01 1.579-.01 3.515-.01-.42-1.068-6.197-9.954-6.212-9.965-1.157 1.967-5.38 8.463-5.845 9.964l3.333-.04c0 2.725.032 21.69.032 22.359zm11.103-3.452h4.313l-.006-15.257c.91-.014 1.445.003 2.312.003-4.258-7.004 0 0-4.316-7.068l-4.317 7.056 2.066.005-.052 15.26zm-38.585 3.452c-1.888.016-3.8-.016-5.723-.016l.547-22.292c-1.404-.01-1.579-.01-3.515-.01.42-1.068 6.197-9.954 6.212-9.965 1.157 1.967 5.38 8.463 5.845 9.964l-3.333-.04c0 2.725-.032 21.69-.033 22.359zM6.62 47.06H2.305l.006-15.257c-.91-.014-1.444.003-2.312.003 4.259-7.004 0 0 4.317-7.068l4.316 7.056-2.066.005.052 15.26z"/></g><defs><clipPath id="clip0"><path fill="#fff" d="M0 0h62.927v60H0z"/></clipPath></defs></svg>