<svg width="141" height="36" fill="none" xmlns="http://www.w3.org/2000/svg"><g clip-path="url(#clip0)" fill-rule="evenodd" clip-rule="evenodd" fill="#fff"><path d="M59.299 36c-.135-3.663.966-4.966 2.105-7.849l9.009-20.985c.709 1.084 4.959 11.669 5.939 13.915.97 2.227 2.035 4.855 2.926 7.075 1.277 3.185 2.228 3.941 1.653 7.826l6.638-.003c-.678-1.356-1.706-2.584-2.5-4.334C82.785 26.611 70.969.588 70.344 0l-16.48 35.972 5.435.028zM101.27 8.553c.059.053.171.208.21.251l.111.12.553.654c.737 1.299.43 10.638.42 12.415-1.203-.67-8.7-9.297-10.373-11.039-.665-.693-.97-1.1-1.727-1.854-1.028-1.024-.914-1.323-1.757-1.559l-.027 16.463c-.012 3.59-.453 2.797-1.29 4.134l5.58-.08c-.824-.958-1.132-.825-1.286-2.437l.019-11.244 11.952 12.97c.482.475.55.562.932.973.62.668.216.47.95.645l.003-16.402c.035-3.992.791-3.044 1.372-4l-5.642-.01zM6.798 25.772c-2.713-.012-2.226-1.47-2.185-5.82l.018-.964c2.636-.185 6.687-.366 6.78 3.345.068 2.702-2.092 3.45-4.613 3.44zm-2.08-9.227c-.19-1.223-.26-4.38.049-5.517 7.44-1.096 7.81 5.947-.05 5.517zm-4.364-8l.655.761c1.155 1.451.647 12.153.647 14.458-.001 3.876-.363 3.028-1.353 4.353 3.95.11 10.292.651 12.74-1.681 1.787-1.703 2.18-5.833-.18-7.793l-2.069-1.313c1.362-1.074 2.542-1.292 2.57-3.808.065-6.13-7.373-5.038-13.01-4.976zm24.079 12.051c.083-.915 2.277-5.909 2.834-6.846l.538.907c.14.322.19.517.321.84.528 1.303 1.835 3.938 2.081 5.077l-5.774.022zm-2.065 7.53c-.858-1.687-.717-1.566.924-5.252l7.782.024c.409.463.888 1.657 1.147 2.327.746 1.927.076 2.236-.333 2.908l5.486-.007c-.865-1.609-.595.158-2.885-4.914L27.968 9.015c-.356-.739-.198-.565-.702-.948-.826.728-1.925 3.852-2.493 5.091-1.023 2.233-5.637 13.2-6.925 14.543l4.52.425zM128.874 8.563l.319.373c1.064 1.179-.362-.51.341.359 1.156 1.428.651 12.181.649 14.47-.004 4.673-.967 3.43-1.348 4.368l11.902-.067.263-3.764c-.964.828-1.041 1.392-2.616 1.517-6.116.484-5.323.058-5.23-6.9 4.078-.05 4.884-.506 6.69 1.082.035.03.134.171.16.126.027-.047.108.087.194.125l.041-5.019c-.069.046-.143.11-.196.154l-1.223.939c-1.033.447-4.46.295-5.665.288l.003-5.786c1.493-.019 3.064-.05 4.553.004 2.406.087 1.749.713 3.028 1.283l-.034-3.562-11.831.01zm-16.063 9.959c-.006-3.47 1.45-6.18 3.747-7.362 1.378-.709 2.881-.958 4.7-.736 2.018.246 2.569 1.056 4.17 1.577l-.037-3.524c-2.521.593-6.539-1.858-11.069.92-2.473 1.517-4.467 4.511-4.574 8.646-.308 11.933 13.112 11.506 15.097 9.701.523-.475.609-2.385.658-3.283-1.278.302-2.027 1.327-3.78 1.667-4.946.958-8.901-2.064-8.911-7.607h-.001zM86.943 31.313c.19.64.295.954.472 1.561 8.834.19 17.863.002 26.72.009 1.051 0 25.383.394 26.546-.303l-.001-.953c-.801-.54-1.178-.33-3.459-.327-16.655.025-33.743-.16-50.278.013zM.05 32.864l49.35.02c3.418 0 4.37.657 4.654-1.583L28.456 31.3c-6.779 0-22.742-.281-28.456.145l.05 1.42zM41.513 8.53c.054.057.174.23.213.278l.111.132c.354.417.629.606.802 1.303.34 1.37.181 11.652.176 13.762-.007 2.998-.165 3.028-1.444 3.994 1.34.296 9.377.25 10.977.047l.369-3.604c-1.205.71-.615 1.294-2.823 1.409-1.296.067-2.968.205-3.805-.419-.549-.67-.395-11.875-.288-13.833.15-2.754.931-2.272 1.363-3.042l-5.652-.027z"/><path d="M67.471 23.05c1.007 3.356 7.151 2.243 5.827-2.033-1.118-3.608-7.085-2.164-5.827 2.032z"/></g><defs><clipPath id="clip0"><path fill="#fff" d="M0 0h141v36H0z"/></clipPath></defs></svg>